# xmcd CD database file generated by Grip 2.91
# 
# Track frame offsets:
#       150
#       14847
#       30630
#       50395
#       64570
#       84402
#       104530
#       118387
#       130502
#       146120
# 
# Disc length: 2158 seconds
# 
# Revision: 3
# Processed by: cddbd v1.4b41PL1 Copyright (c) Steve Scherf et al.
# Submitted via: Grip 2.91
# 
DISCID=8b086c0a
DTITLE=Reba McEntire - What Am I Gonna Do About You
DYEAR=1900
DGENRE=
TTITLE0=Why Not Tonight
TTITLE1=What Am I Gonna Do About You
TTITLE2=Lookin' For a New Love Story
TTITLE3=Take Me Back
TTITLE4=My Mind Is On You
TTITLE5=Let The Music Lift You Up
TTITLE6=I Heard Her Cryin'
TTITLE7=No Such Thing
TTITLE8=One Promise Too Late
TTITLE9=Till It Snows In Mexico
EXTD=
EXTT0=
EXTT1=
EXTT2=
EXTT3=
EXTT4=
EXTT5=
EXTT6=
EXTT7=
EXTT8=
EXTT9=
PLAYORDER=
